<svg width="72" height="72" viewBox="0 0 72 72" fill="none" xmlns="http://www.w3.org/2000/svg">
<path d="M49.5 72H22.5C10.0755 72 0 61.9245 0 49.5V22.5C0 10.0755 10.0755 0 22.5 0H49.5C61.9245 0 72 10.0755 72 22.5V49.5C72 61.9245 61.9245 72 49.5 72ZM65.25 22.5C65.25 13.815 58.185 6.75 49.5 6.75H22.5C13.815 6.75 6.75 13.815 6.75 22.5V49.5C6.75 58.185 13.815 65.25 22.5 65.25H49.5C58.185 65.25 65.25 58.185 65.25 49.5V22.5Z" fill="#E6D046"/>
<path d="M36 54C26.0595 54 18 45.9405 18 36C18 26.0595 26.0595 18 36 18C45.9405 18 54 26.0595 54 36C54 45.9405 45.9405 54 36 54ZM36 24.75C29.799 24.75 24.75 29.799 24.75 36C24.75 42.2055 29.799 47.25 36 47.25C42.201 47.25 47.25 42.2055 47.25 36C47.25 29.799 42.201 24.75 36 24.75Z" fill="#E6D046"/>
<path d="M55.3502 52.9515C56.6748 52.9515 57.7487 54.0254 57.7487 55.35C57.7487 56.6747 56.6748 57.7485 55.3502 57.7485C54.0255 57.7485 52.9517 56.6747 52.9517 55.35C52.9517 54.0254 54.0255 52.9515 55.3502 52.9515Z" fill="#E6D046"/>
</svg>
